HIERARCHY
ROOT Hips
{
	OFFSET 0.000000 121.760803 0.000000
	CHANNELS 6 Xposition Yposition Zposition Xrotation Yrotation Zrotation 
	JOINT Spine
	{
		OFFSET 0.072000 7.257294 -0.789700
		CHANNELS 3 Xrotation Yrotation Zrotation
		JOINT Spine1
		{
			OFFSET 0.000000 12.508769 -0.658067
			CHANNELS 3 Xrotation Yrotation Zrotation
			JOINT Spine1_split
			{
				OFFSET 0.000000 12.508769 -0.658067
				CHANNELS 3 Xrotation Yrotation Zrotation
				JOINT Spine2
				{
					OFFSET 0.000000 12.508769 -0.658067
					CHANNELS 3 Xrotation Yrotation Zrotation
					JOINT Neck
					{
						OFFSET 0.000000 14.033295 7.520400
						CHANNELS 3 Xrotation Yrotation Zrotation
						JOINT Head
						{
							OFFSET 0.000000 8.198502 5.703100
							CHANNELS 3 Xrotation Yrotation Zrotation
							JOINT HeadTop_End
							{
								OFFSET 0.000000 17.760803 13.332701
								CHANNELS 3 Xrotation Yrotation Zrotation
								End Site
								{
									OFFSET 0.000000 0.000000 0.000000
								}
							}
						}
					}
					JOINT LeftShoulder
					{
						OFFSET 6.292450 5.785301 -0.669000
						CHANNELS 3 Xrotation Yrotation Zrotation
						JOINT LeftShoulder_split
						{
							OFFSET 6.292450 5.785301 -0.669000
							CHANNELS 3 Xrotation Yrotation Zrotation
							JOINT LeftArm
							{
								OFFSET 13.907140 -6.093903 1.965100
								CHANNELS 3 Xrotation Yrotation Zrotation
								JOINT LeftForeArm
								{
									OFFSET 34.140198 0.000000 0.000000
									CHANNELS 3 Xrotation Yrotation Zrotation
									JOINT LeftHand
									{
										OFFSET 40.960209 0.000000 0.000000
										CHANNELS 3 Xrotation Yrotation Zrotation
										JOINT LeftHandThumb1
										{
											OFFSET 10.006996 -7.170425 9.573125
											CHANNELS 3 Xrotation Yrotation Zrotation
											JOINT LeftHandThumb2
											{
												OFFSET 1.835007 -1.059448 1.059443
												CHANNELS 3 Xrotation Yrotation Zrotation
												JOINT LeftHandThumb3
												{
													OFFSET 2.112267 -1.219513 1.219518
													CHANNELS 3 Xrotation Yrotation Zrotation
													JOINT LeftHandThumb4
													{
														OFFSET 4.843811 -2.796570 2.796576
														CHANNELS 3 Xrotation Yrotation Zrotation
														End Site
														{
															OFFSET 0.000000 0.000000 0.000000
														}
													}
												}
											}
										}
										JOINT LeftHandIndex1
										{
											OFFSET 18.389847 -0.922348 4.596882
											CHANNELS 3 Xrotation Yrotation Zrotation
											JOINT LeftHandIndex2
											{
												OFFSET 4.711273 0.000000 0.000000
												CHANNELS 3 Xrotation Yrotation Zrotation
												JOINT LeftHandIndex3
												{
													OFFSET 2.886131 0.000000 0.000000
													CHANNELS 3 Xrotation Yrotation Zrotation
													JOINT LeftHandIndex4
													{
														OFFSET 6.145912 0.000000 0.000000
														CHANNELS 3 Xrotation Yrotation Zrotation
														End Site
														{
															OFFSET 0.000000 0.000000 0.000000
														}
													}
												}
											}
										}
										JOINT LeftHandMiddle1
										{
											OFFSET 18.013008 0.000000 0.000000
											CHANNELS 3 Xrotation Yrotation Zrotation
											JOINT LeftHandMiddle2
											{
												OFFSET 4.946693 0.000000 0.000000
												CHANNELS 3 Xrotation Yrotation Zrotation
												JOINT LeftHandMiddle3
												{
													OFFSET 3.342232 0.000000 0.000000
													CHANNELS 3 Xrotation Yrotation Zrotation
													JOINT LeftHandMiddle4
													{
														OFFSET 4.461754 0.000000 0.000000
														CHANNELS 3 Xrotation Yrotation Zrotation
														End Site
														{
															OFFSET 0.000000 0.000000 0.000000
														}
													}
												}
											}
										}
										JOINT LeftHandRing1
										{
											OFFSET 15.849892 -0.102921 -4.126150
											CHANNELS 3 Xrotation Yrotation Zrotation
											JOINT LeftHandRing2
											{
												OFFSET 3.527054 0.000000 0.000000
												CHANNELS 3 Xrotation Yrotation Zrotation
												JOINT LeftHandRing3
												{
													OFFSET 2.961098 0.000000 0.000000
													CHANNELS 3 Xrotation Yrotation Zrotation
													JOINT LeftHandRing4
													{
														OFFSET 4.927200 0.000000 0.000000
														CHANNELS 3 Xrotation Yrotation Zrotation
														End Site
														{
															OFFSET 0.000000 0.000000 0.000000
														}
													}
												}
											}
										}
										JOINT LeftHandPinky1
										{
											OFFSET 12.791824 -0.832031 -6.799156
											CHANNELS 3 Xrotation Yrotation Zrotation
											JOINT LeftHandPinky2
											{
												OFFSET 3.327133 0.000000 0.000000
												CHANNELS 3 Xrotation Yrotation Zrotation
												JOINT LeftHandPinky3
												{
													OFFSET 3.014900 0.000000 0.000000
													CHANNELS 3 Xrotation Yrotation Zrotation
													JOINT LeftHandPinky4
													{
														OFFSET 5.847786 0.000000 0.000000
														CHANNELS 3 Xrotation Yrotation Zrotation
														End Site
														{
															OFFSET 0.000000 0.000000 0.000000
														}
													}
												}
											}
										}
									}
								}
							}
						}
					}
					JOINT RightShoulder
					{
						OFFSET -6.292450 5.785301 -0.669000
						CHANNELS 3 Xrotation Yrotation Zrotation
						JOINT RightShoulder_split
						{
							OFFSET -6.292450 5.785301 -0.669000
							CHANNELS 3 Xrotation Yrotation Zrotation
							JOINT RightArm
							{
								OFFSET -13.907140 -6.093903 1.965100
								CHANNELS 3 Xrotation Yrotation Zrotation
								JOINT RightForeArm
								{
									OFFSET -34.140198 0.000000 0.000000
									CHANNELS 3 Xrotation Yrotation Zrotation
									JOINT RightHand
									{
										OFFSET -40.960209 0.000000 0.000000
										CHANNELS 3 Xrotation Yrotation Zrotation
										JOINT RightHandThumb1
										{
											OFFSET -10.007050 -7.170456 9.573117
											CHANNELS 3 Xrotation Yrotation Zrotation
											JOINT RightHandThumb2
											{
												OFFSET -1.835007 -1.059448 1.059443
												CHANNELS 3 Xrotation Yrotation Zrotation
												JOINT RightHandThumb3
												{
													OFFSET -2.112267 -1.219513 1.219518
													CHANNELS 3 Xrotation Yrotation Zrotation
													JOINT RightHandThumb4
													{
														OFFSET -4.843834 -2.796585 2.796590
														CHANNELS 3 Xrotation Yrotation Zrotation
														End Site
														{
															OFFSET 0.000000 0.000000 0.000000
														}
													}
												}
											}
										}
										JOINT RightHandIndex1
										{
											OFFSET -18.389870 -0.922424 4.596786
											CHANNELS 3 Xrotation Yrotation Zrotation
											JOINT RightHandIndex2
											{
												OFFSET -4.711273 0.000000 0.000000
												CHANNELS 3 Xrotation Yrotation Zrotation
												JOINT RightHandIndex3
												{
													OFFSET -2.886131 0.000000 0.000000
													CHANNELS 3 Xrotation Yrotation Zrotation
													JOINT RightHandIndex4
													{
														OFFSET -6.145920 0.000000 0.000000
														CHANNELS 3 Xrotation Yrotation Zrotation
														End Site
														{
															OFFSET 0.000000 0.000000 0.000000
														}
													}
												}
											}
										}
										JOINT RightHandMiddle1
										{
											OFFSET -18.013008 0.000000 0.000000
											CHANNELS 3 Xrotation Yrotation Zrotation
											JOINT RightHandMiddle2
											{
												OFFSET -4.946693 0.000000 0.000000
												CHANNELS 3 Xrotation Yrotation Zrotation
												JOINT RightHandMiddle3
												{
													OFFSET -3.342232 0.000000 0.000000
													CHANNELS 3 Xrotation Yrotation Zrotation
													JOINT RightHandMiddle4
													{
														OFFSET -4.461754 0.000000 0.000000
														CHANNELS 3 Xrotation Yrotation Zrotation
														End Site
														{
															OFFSET 0.000000 0.000000 0.000000
														}
													}
												}
											}
										}
										JOINT RightHandRing1
										{
											OFFSET -15.849876 -0.102936 -4.126237
											CHANNELS 3 Xrotation Yrotation Zrotation
											JOINT RightHandRing2
											{
												OFFSET -3.527054 0.000000 0.000000
												CHANNELS 3 Xrotation Yrotation Zrotation
												JOINT RightHandRing3
												{
													OFFSET -2.961098 0.000000 0.000000
													CHANNELS 3 Xrotation Yrotation Zrotation
													JOINT RightHandRing4
													{
														OFFSET -4.927200 0.000000 0.000000
														CHANNELS 3 Xrotation Yrotation Zrotation
														End Site
														{
															OFFSET 0.000000 0.000000 0.000000
														}
													}
												}
											}
										}
										JOINT RightHandPinky1
										{
											OFFSET -12.791786 -0.832077 -6.799222
											CHANNELS 3 Xrotation Yrotation Zrotation
											JOINT RightHandPinky2
											{
												OFFSET -3.327133 0.000000 0.000000
												CHANNELS 3 Xrotation Yrotation Zrotation
												JOINT RightHandPinky3
												{
													OFFSET -3.014900 0.000000 0.000000
													CHANNELS 3 Xrotation Yrotation Zrotation
													JOINT RightHandPinky4
													{
														OFFSET -5.847786 0.000000 0.000000
														CHANNELS 3 Xrotation Yrotation Zrotation
														End Site
														{
															OFFSET 0.000000 0.000000 0.000000
														}
													}
												}
											}
										}
									}
								}
							}
						}
					}
				}
			}
		}
	}
	JOINT LeftUpLeg
	{
		OFFSET 13.026900 -6.336304 -1.092800
		CHANNELS 3 Xrotation Yrotation Zrotation
		JOINT LeftLeg
		{
			OFFSET 0.524474 -46.096886 9.782700
			CHANNELS 3 Xrotation Yrotation Zrotation
			JOINT LeftFoot
			{
				OFFSET -0.524474 -53.427422 -12.948200
				CHANNELS 3 Xrotation Yrotation Zrotation
				JOINT LeftToeBase
				{
					OFFSET 0.192200 -14.009700 16.364100
					CHANNELS 3 Xrotation Yrotation Zrotation
					JOINT LeftToe_End
					{
						OFFSET -1.784700 -0.561700 9.474800
						CHANNELS 3 Xrotation Yrotation Zrotation
						End Site
						{
							OFFSET 0.000000 0.000000 0.000000
						}
					}
				}
			}
		}
	}
	JOINT RightUpLeg
	{
		OFFSET -12.883000 -6.336304 -1.092800
		CHANNELS 3 Xrotation Yrotation Zrotation
		JOINT RightLeg
		{
			OFFSET -0.524587 -46.096825 9.782800
			CHANNELS 3 Xrotation Yrotation Zrotation
			JOINT RightFoot
			{
				OFFSET 0.524587 -53.427383 -12.948300
				CHANNELS 3 Xrotation Yrotation Zrotation
				JOINT RightToeBase
				{
					OFFSET -0.192200 -14.009700 16.364100
					CHANNELS 3 Xrotation Yrotation Zrotation
					JOINT RightToe_End
					{
						OFFSET 1.784700 -0.561700 9.474800
						CHANNELS 3 Xrotation Yrotation Zrotation
						End Site
						{
							OFFSET 0.000000 0.000000 0.000000
						}
					}
				}
			}
		}
	}
}
MOTION
Frames: 5
Frame Time: 0.016667
-0.325751 111.594070 0.204129 1.512901 -26.772895 1.041604 4.034318 -1.427899 0.364587 1.509779 -0.573493 0.095187 0.000000 0.000000 0.000000 1.512356 -0.565988 0.098705 -2.627946 4.190005 2.862242 16.708350 24.088503 -12.351907 0.000001 -0.000000 -0.000000 -0.278006 3.012253 5.812622 0.000000 0.000000 0.000000 -51.694136 -1.278270 -53.239071 0.000801 -85.822051 0.000784 -13.673764 -20.175387 -8.459485 27.590959 19.106281 -21.055334 27.859565 42.153018 14.703688 8.091819 17.848664 9.739466 0.000000 0.000003 -0.000001 6.438747 6.867037 -86.304611 7.312879 6.867695 -93.605297 2.157740 5.009659 -46.582959 -0.000001 -0.000000 0.000001 6.436811 6.866913 -86.288403 7.314807 6.867584 -93.621505 2.157739 5.009658 -46.582939 0.000001 -0.000001 -0.000001 6.438747 6.867029 -86.304617 7.312872 6.867706 -93.605297 2.157739 5.009662 -46.582962 0.000001 -0.000001 0.000001 10.514970 7.128941 -86.291039 7.312031 2.781441 -93.595298 2.157739 5.009663 -46.582966 0.000001 0.000000 0.000000 -1.118781 -11.889985 10.257418 0.000000 0.000000 0.000000 -58.214747 66.009373 74.019976 -0.000553 83.646786 0.000546 -16.117232 15.251141 -32.686796 35.509593 -4.573186 10.809935 66.380799 -29.908019 29.548740 25.917443 -18.540859 10.281101 -0.000000 0.000003 0.000001 5.945865 -6.875890 81.685340 8.620183 -6.745007 103.956558 2.650650 -5.464866 51.723827 -0.000001 0.000000 0.000001 5.945865 -6.875887 81.685333 8.620172 -6.745013 103.956579 2.650639 -5.464860 51.723817 -0.000002 0.000003 -0.000001 5.945851 -6.875901 81.685347 8.620185 -6.745034 103.956558 2.650654 -5.464866 51.723807 -0.000001 0.000001 -0.000001 5.945861 -6.875899 81.685354 8.620179 -6.745014 103.956552 2.650640 -5.464863 51.723820 -0.000000 -0.000003 0.000003 -29.976939 25.418904 14.726385 26.448523 8.322865 10.316854 -0.254685 0.586758 -12.093454 -0.000064 0.000003 0.000003 0.000000 0.000000 0.000000 -20.163079 -16.340628 -9.720624 30.314217 -1.831217 -7.036294 -12.096408 -1.741266 10.965195 -0.000029 -0.000005 0.000001 -0.000000 0.000000 0.000000 
-0.330152 111.591644 0.210975 1.528791 -26.772245 1.060899 4.021314 -1.433977 0.368194 1.504780 -0.576876 0.097092 0.000000 0.000000 0.000000 1.507368 -0.569389 0.100619 -2.626397 4.193305 2.853713 16.723305 24.085790 -12.361634 0.000001 0.000000 0.000000 -0.279654 3.035688 5.768245 0.000000 0.000000 0.000000 -51.680889 -1.342421 -53.222876 -0.000511 -85.775886 -0.000537 -13.811730 -20.364110 -8.525109 27.590959 19.106281 -21.055330 27.859558 42.153025 14.703688 8.091817 17.848662 9.739456 -0.000001 0.000001 0.000000 6.438747 6.867036 -86.304604 7.312881 6.867696 -93.605291 2.157741 5.009661 -46.582956 0.000000 0.000001 0.000000 6.436812 6.866910 -86.288396 7.314805 6.867585 -93.621505 2.157740 5.009658 -46.582949 0.000000 0.000001 -0.000001 6.438745 6.867028 -86.304611 7.312873 6.867707 -93.605291 2.157740 5.009662 -46.582959 0.000001 -0.000001 0.000001 10.514968 7.128939 -86.291032 7.312034 2.781439 -93.595291 2.157740 5.009665 -46.582962 -0.000000 0.000000 -0.000001 -1.120093 -11.901474 10.263996 0.000000 0.000000 0.000000 -58.262149 66.059513 74.030030 -0.000010 83.625537 -0.000009 -16.127159 15.169001 -32.708827 35.509587 -4.573186 10.809940 66.380799 -29.908012 29.548740 25.917443 -18.540866 10.281099 -0.000001 0.000002 0.000000 5.945868 -6.875890 81.685340 8.620177 -6.745012 103.956558 2.650647 -5.464864 51.723824 -0.000001 -0.000002 0.000003 5.945868 -6.875893 81.685333 8.620169 -6.745006 103.956572 2.650638 -5.464859 51.723817 0.000000 0.000003 0.000000 5.945853 -6.875902 81.685347 8.620187 -6.745035 103.956558 2.650658 -5.464865 51.723814 0.000003 -0.000002 -0.000000 5.945859 -6.875896 81.685347 8.620180 -6.745018 103.956545 2.650640 -5.464865 51.723817 -0.000000 -0.000005 0.000003 -29.989042 25.444674 14.720371 26.450543 8.302724 10.317028 -0.259837 0.587484 -12.089462 -0.000064 0.000004 0.000003 -0.000000 0.000000 0.000000 -20.198826 -16.421168 -9.723020 30.324469 -1.758555 -7.092876 -12.106241 -1.740298 10.964347 -0.000029 -0.000005 0.000001 0.000000 0.000000 -0.000000 
-0.333943 111.587921 0.218406 1.545489 -26.768268 1.076337 4.008799 -1.440585 0.372376 1.499958 -0.580342 0.099077 0.000000 0.000000 0.000000 1.502557 -0.572899 0.102617 -2.623186 4.196177 2.846582 16.734047 24.083206 -12.365514 0.000001 0.000000 0.000000 -0.280744 3.056237 5.722898 0.000000 0.000000 0.000000 -51.672806 -1.406305 -53.202843 0.001033 -85.730827 0.001048 -13.921655 -20.527413 -8.571529 27.590968 19.106281 -21.055334 27.859565 42.153025 14.703685 8.091816 17.848661 9.739460 -0.000001 0.000001 0.000003 6.438748 6.867038 -86.304604 7.312882 6.867696 -93.605291 2.157740 5.009657 -46.582959 -0.000001 -0.000001 0.000001 6.436811 6.866912 -86.288396 7.314804 6.867585 -93.621512 2.157739 5.009660 -46.582945 -0.000001 -0.000001 0.000000 6.438746 6.867029 -86.304617 7.312871 6.867706 -93.605291 2.157740 5.009662 -46.582956 0.000001 -0.000001 -0.000001 10.514970 7.128937 -86.291032 7.312033 2.781439 -93.595284 2.157740 5.009665 -46.582966 0.000001 -0.000001 0.000001 -1.121294 -11.910744 10.267822 0.000000 0.000000 0.000000 -58.301006 66.100529 74.036088 0.000401 83.610859 -0.000420 -16.139124 15.077361 -32.725554 35.509593 -4.573189 10.809937 66.380799 -29.908012 29.548744 25.917438 -18.540858 10.281105 0.000000 -0.000001 0.000001 5.945867 -6.875893 81.685340 8.620176 -6.745007 103.956558 2.650647 -5.464862 51.723827 -0.000001 -0.000001 0.000001 5.945870 -6.875893 81.685333 8.620171 -6.745012 103.956579 2.650636 -5.464861 51.723817 -0.000001 -0.000002 -0.000001 5.945854 -6.875901 81.685347 8.620184 -6.745036 103.956558 2.650659 -5.464864 51.723817 -0.000000 0.000001 -0.000001 5.945864 -6.875899 81.685354 8.620173 -6.745017 103.956545 2.650642 -5.464863 51.723824 -0.000001 0.000000 0.000002 -30.010762 25.475842 14.721558 26.459253 8.271475 10.317059 -0.268073 0.588070 -12.081857 -0.000064 0.000004 0.000003 -0.000000 0.000000 -0.000000 -20.234714 -16.507476 -9.722393 30.335387 -1.688097 -7.150858 -12.116523 -1.739465 10.964782 -0.000029 -0.000005 0.000001 -0.000000 0.000000 -0.000000 
-0.337442 111.583244 0.226319 1.562573 -26.761938 1.088010 3.996823 -1.447942 0.377328 1.495334 -0.584006 0.101199 0.000000 0.000000 0.000000 1.497949 -0.576588 0.104754 -2.617657 4.198874 2.840609 16.741154 24.081478 -12.364069 -0.000000 -0.000000 -0.000000 -0.281259 3.073341 5.677566 0.000000 0.000000 0.000000 -51.670863 -1.468556 -53.178743 0.002149 -85.685331 0.002180 -13.994055 -20.655530 -8.594100 27.590964 19.106281 -21.055337 27.859558 42.153021 14.703685 8.091817 17.848659 9.739461 0.000000 0.000001 -0.000000 6.438750 6.867037 -86.304611 7.312883 6.867698 -93.605297 2.157739 5.009661 -46.582959 -0.000001 0.000001 0.000001 6.436813 6.866915 -86.288403 7.314806 6.867584 -93.621505 2.157739 5.009662 -46.582935 -0.000001 -0.000001 0.000001 6.438748 6.867030 -86.304624 7.312872 6.867704 -93.605291 2.157739 5.009661 -46.582959 -0.000000 -0.000000 0.000000 10.514972 7.128938 -86.291039 7.312033 2.781438 -93.595291 2.157740 5.009665 -46.582956 -0.000000 -0.000000 0.000000 -1.122336 -11.917107 10.268323 0.000000 0.000000 0.000000 -58.332008 66.132719 74.039927 0.000653 83.601044 -0.000692 -16.154552 14.982348 -32.734761 35.509593 -4.573187 10.809935 66.380805 -29.908019 29.548740 25.917435 -18.540854 10.281104 -0.000001 -0.000000 -0.000002 5.945869 -6.875892 81.685340 8.620179 -6.745007 103.956558 2.650652 -5.464863 51.723827 -0.000001 0.000002 0.000001 5.945868 -6.875893 81.685333 8.620169 -6.745009 103.956579 2.650634 -5.464861 51.723817 0.000003 -0.000002 -0.000000 5.945856 -6.875903 81.685347 8.620184 -6.745035 103.956558 2.650655 -5.464866 51.723807 0.000001 0.000000 -0.000001 5.945865 -6.875897 81.685354 8.620177 -6.745012 103.956545 2.650644 -5.464865 51.723824 -0.000002 0.000001 0.000000 -30.041098 25.513796 14.730184 26.473518 8.228696 10.316967 -0.278985 0.588535 -12.070765 -0.000064 0.000004 0.000003 -0.000000 0.000000 -0.000000 -20.270229 -16.599455 -9.718475 30.346230 -1.619921 -7.210442 -12.126677 -1.738742 10.966280 -0.000029 -0.000005 0.000001 0.000000 0.000000 -0.000000 
-0.340842 111.577942 0.234248 1.579113 -26.755610 1.097555 3.985381 -1.456239 0.383123 1.490912 -0.588001 0.103529 0.000000 0.000000 0.000000 1.493537 -0.580598 0.107101 -2.609241 4.201769 2.835403 16.745512 24.081504 -12.358257 0.000001 0.000000 -0.000000 -0.281203 3.086698 5.633041 0.000000 0.000000 0.000000 -51.676375 -1.528070 -53.150715 0.002254 -85.637506 0.002220 -14.020930 -20.738403 -8.589171 27.590962 19.106279 -21.055335 27.859558 42.153028 14.703690 8.091816 17.848659 9.739460 0.000001 -0.000002 -0.000001 6.438746 6.867037 -86.304611 7.312883 6.867695 -93.605291 2.157742 5.009662 -46.582959 0.000000 -0.000000 0.000001 6.436811 6.866913 -86.288396 7.314805 6.867585 -93.621505 2.157740 5.009661 -46.582939 -0.000001 0.000001 -0.000000 6.438746 6.867027 -86.304617 7.312870 6.867704 -93.605291 2.157739 5.009662 -46.582962 -0.000001 0.000000 -0.000001 10.514971 7.128938 -86.291039 7.312032 2.781437 -93.595284 2.157741 5.009667 -46.582959 0.000000 0.000000 -0.000000 -1.123203 -11.919761 10.264615 0.000000 0.000000 0.000000 -58.356153 66.157014 74.043069 0.000275 83.594152 -0.000278 -16.174416 14.890161 -32.735092 35.509593 -4.573187 10.809933 66.380799 -29.908015 29.548747 25.917436 -18.540866 10.281100 0.000000 -0.000000 -0.000002 5.945869 -6.875887 81.685340 8.620182 -6.745006 103.956558 2.650647 -5.464863 51.723824 -0.000001 -0.000000 -0.000001 5.945869 -6.875884 81.685333 8.620168 -6.745006 103.956579 2.650642 -5.464858 51.723817 -0.000001 0.000002 -0.000000 5.945856 -6.875899 81.685347 8.620183 -6.745032 103.956558 2.650659 -5.464866 51.723814 -0.000001 -0.000002 -0.000002 5.945863 -6.875893 81.685347 8.620177 -6.745016 103.956545 2.650646 -5.464864 51.723820 0.000001 0.000001 0.000001 -30.077810 25.562562 14.745188 26.491669 8.173503 10.317046 -0.292083 0.588985 -12.056113 -0.000064 0.000004 0.000003 0.000000 0.000000 -0.000000 -20.305606 -16.694495 -9.712757 30.357544 -1.553448 -7.271235 -12.136608 -1.738132 10.968299 -0.000029 -0.000005 0.000001 0.000000 0.000000 -0.000000 
